<svg t="1583628584056" class="icon" viewBox="0 0 1024 1024" version="1.1" xmlns="http://www.w3.org/2000/svg" p-id="2342" width="200" height="200"><path d="M672 672m16 0l128 0q16 0 16 16l0 128q0 16-16 16l-128 0q-16 0-16-16l0-128q0-16 16-16Z" p-id="2343"></path><path d="M544 544m16 0l96 0q16 0 16 16l0 96q0 16-16 16l-96 0q-16 0-16-16l0-96q0-16 16-16Z" p-id="2344"></path><path d="M832 832m16 0l96 0q16 0 16 16l0 96q0 16-16 16l-96 0q-16 0-16-16l0-96q0-16 16-16Z" p-id="2345"></path><path d="M864 544m16 0l64 0q16 0 16 16l0 64q0 16-16 16l-64 0q-16 0-16-16l0-64q0-16 16-16Z" p-id="2346"></path><path d="M544 864m16 0l64 0q16 0 16 16l0 64q0 16-16 16l-64 0q-16 0-16-16l0-64q0-16 16-16Z" p-id="2347"></path><path d="M896 64H608a64 64 0 0 0-64 64v288a64 64 0 0 0 64 64h288a64 64 0 0 0 64-64V128a64 64 0 0 0-64-64z m-64 272a16 16 0 0 1-16 16h-128a16 16 0 0 1-16-16v-128a16 16 0 0 1 16-16h128a16 16 0 0 1 16 16zM416 64H128a64 64 0 0 0-64 64v288a64 64 0 0 0 64 64h288a64 64 0 0 0 64-64V128a64 64 0 0 0-64-64z m-64 272a16 16 0 0 1-16 16h-128a16 16 0 0 1-16-16v-128a16 16 0 0 1 16-16h128a16 16 0 0 1 16 16zM416 544H128a64 64 0 0 0-64 64v288a64 64 0 0 0 64 64h288a64 64 0 0 0 64-64V608a64 64 0 0 0-64-64z m-64 272a16 16 0 0 1-16 16h-128a16 16 0 0 1-16-16v-128a16 16 0 0 1 16-16h128a16 16 0 0 1 16 16z" p-id="2348"></path></svg>