<svg t="1583632446058" class="icon" viewBox="0 0 1024 1024" version="1.1" xmlns="http://www.w3.org/2000/svg" p-id="2387" width="200" height="200"><path d="M917.111 414.494V125.618c0-25.526-20.693-46.22-46.22-46.22h-323.54c-25.527 0-46.22 20.694-46.22 46.22v288.875c0 25.527 20.693 46.22 46.22 46.22h323.54c25.527 0 46.22-20.692 46.22-46.219z m-92.44-69.33c0 12.763-10.347 23.11-23.11 23.11H616.68c-12.764 0-23.11-10.347-23.11-23.11V194.947c0-12.764 10.346-23.11 23.11-23.11h184.88c12.764 0 23.11 10.346 23.11 23.11v150.215zM453.92 563.285H130.379c-25.526 0-46.22 20.693-46.22 46.22V898.38c0 25.526 20.694 46.22 46.22 46.22h323.54c25.527 0 46.22-20.694 46.22-46.22V609.506c0.001-25.527-20.692-46.22-46.218-46.22zM407.7 829.052c0 12.764-10.347 23.11-23.11 23.11H199.709c-12.764 0-23.11-10.346-23.11-23.11V678.837c0-12.764 10.346-23.11 23.11-23.11h184.88c12.764 0 23.111 10.346 23.111 23.11v150.215z m-222.776-349.67l126.217-147.5h-74.03c0.607-83.156 65.538-150.377 145.578-150.377h34.333V80.07H382.69c-133.002 0-240.82 112.216-240.82 250.643 0 0.391 0.008 0.78 0.014 1.169H58.708l126.216 147.5z m780.368 213.409l-126.216-147.5-126.218 147.5h74.031c-0.607 83.155-65.538 150.376-145.578 150.376h-34.333v101.436h34.333c133.002 0 240.82-112.217 240.82-250.644 0-0.39-0.008-0.78-0.014-1.168h83.175z" p-id="2388"></path></svg>